<svg width="11" height="11" viewBox="0 0 11 11" fill="none" xmlns="http://www.w3.org/2000/svg">
<path d="M5.30446 0.910613C5.3497 0.699934 5.6503 0.699932 5.69554 0.910612L6.44513 4.40132C6.46165 4.47825 6.52175 4.53835 6.59868 4.55487L10.0894 5.30446C10.3001 5.3497 10.3001 5.6503 10.0894 5.69554L6.59868 6.44513C6.52175 6.46165 6.46165 6.52175 6.44513 6.59868L5.69554 10.0894C5.6503 10.3001 5.3497 10.3001 5.30446 10.0894L4.55487 6.59868C4.53835 6.52175 4.47825 6.46165 4.40132 6.44513L0.910613 5.69554C0.699934 5.6503 0.699932 5.3497 0.910612 5.30446L4.40132 4.55487C4.47825 4.53835 4.53835 4.47825 4.55487 4.40132L5.30446 0.910613Z" fill="white"/>
</svg>
