<svg width="235" height="55" viewBox="0 0 235 55" fill="none" xmlns="http://www.w3.org/2000/svg">
<mask id="mask0_139_898" style="mask-type:luminance" maskUnits="userSpaceOnUse" x="0" y="12" width="6" height="15">
<path d="M0 26.221H1.35716C1.35716 21.6824 2.94428 17.5529 5.75414 14.6474L3.78481 12.4791C1.3306 16.6466 0.0247869 21.3883 0 26.2227" fill="white"/>
</mask>
<g mask="url(#mask0_139_898)">
<path d="M2.87829 9.60473L-6.88086 19.348L2.87829 29.0913L12.6374 19.348L2.87829 9.60473Z" fill="url(#paint0_linear_139_898)"/>
</g>
<mask id="mask1_139_898" style="mask-type:luminance" maskUnits="userSpaceOnUse" x="0" y="26" width="6" height="14">
<path d="M0 26.221C0 31.1557 0.881014 35.7445 2.62361 39.743L5.40271 35.9417C2.9378 33.6102 1.35391 30.454 1.35391 26.2404V26.2178L0 26.221Z" fill="white"/>
</mask>
<g mask="url(#mask1_139_898)">
<path d="M2.70333 23.5253L-6.76953 32.9828L2.70447 42.4414L12.1773 32.9839L2.70333 23.5253Z" fill="url(#paint1_linear_139_898)"/>
</g>
<mask id="mask2_139_898" style="mask-type:luminance" maskUnits="userSpaceOnUse" x="46" y="22" width="7" height="10">
<path d="M46.082 25.3204C49.5721 25.3689 51.7196 28.0691 51.6434 31.4953H53.0006C53.0006 28.108 51.4102 25.0278 48.6036 22.7189L46.082 25.3204Z" fill="white"/>
</mask>
<g mask="url(#mask2_139_898)">
<path d="M49.5422 19.2652L41.6875 27.1072L49.5422 34.9492L57.397 27.1072L49.5422 19.2652Z" fill="url(#paint2_linear_139_898)"/>
</g>
<mask id="mask3_139_898" style="mask-type:luminance" maskUnits="userSpaceOnUse" x="46" y="31" width="7" height="13">
<path d="M51.6362 31.4954C51.5698 34.3201 50.0571 36.692 46.7031 38.448L50.2434 43.3164C51.973 40.1279 52.9966 36.2231 52.9966 31.4889L51.6362 31.4954Z" fill="white"/>
</mask>
<g mask="url(#mask3_139_898)">
<path d="M49.8549 28.3564L40.7852 37.4114L49.8549 46.4664L58.9247 37.4114L49.8549 28.3564Z" fill="url(#paint3_linear_139_898)"/>
</g>
<mask id="mask4_139_898" style="mask-type:luminance" maskUnits="userSpaceOnUse" x="7" y="18" width="42" height="20">
<path d="M12.3817 28.1129C10.1144 28.1129 8.37992 25.6277 8.37992 23.2169C8.38139 22.9728 8.39544 22.7288 8.42203 22.4861L7.17177 22.2727C7.07063 22.8057 7.01966 23.347 7.01953 23.8895C7.01953 31.974 13.0603 37.148 20.6866 37.148C35.1846 37.148 39.4876 25.3221 45.9803 25.3221H46.0823L48.6039 22.7205C45.4701 20.1481 40.8302 18.5344 35.1845 18.5344C23.707 18.5344 17.5934 28.1064 12.3817 28.1064" fill="white"/>
</mask>
<g mask="url(#mask4_139_898)">
<path d="M48.6023 18.5344H7.01953V37.1448H48.6023V18.5344Z" fill="url(#paint4_linear_139_898)"/>
</g>
<mask id="mask5_139_898" style="mask-type:luminance" maskUnits="userSpaceOnUse" x="3" y="0" width="50" height="17">
<path d="M3.78382 12.4791L5.75316 14.6474C8.29904 12.0167 11.8506 10.3982 16.1553 10.3982C24.5347 10.3982 30.3504 16.7251 37.8244 16.7251C46.7917 16.7251 51.7523 12.3595 52.9993 3.84334L51.6357 3.61859C51.2567 5.88223 49.783 8.5889 47.1399 8.5889C44.6491 8.5889 42.006 6.40287 38.1597 4.29445C34.3069 2.11004 29.8888 0 24.3776 0C15.5124 0 8.03182 5.21607 3.77734 12.4791" fill="white"/>
</mask>
<g mask="url(#mask5_139_898)">
<path d="M52.9987 0.00170898H3.7832V16.7268H52.9987V0.00170898Z" fill="url(#paint5_linear_139_898)"/>
</g>
<mask id="mask6_139_898" style="mask-type:luminance" maskUnits="userSpaceOnUse" x="2" y="35" width="49" height="20">
<path d="M2.62305 39.7431C6.62163 48.9286 15.1533 55 27.9345 55C36.3819 55 45.7281 51.6595 50.2498 43.3229L46.7095 38.4609C42.5441 40.6469 35.5349 41.8968 24.9141 41.8968C18.4247 41.8968 10.2202 40.4949 5.40214 35.9482L2.62305 39.7431Z" fill="white"/>
</mask>
<g mask="url(#mask6_139_898)">
<path d="M50.2498 35.9414H2.62305V54.9997H50.2498V35.9414Z" fill="url(#paint6_linear_139_898)"/>
</g>
<path d="M138.041 14.481H135.289V27.5066H138.041V14.481Z" fill="#878787"/>
<path d="M133.22 14.481H130.469V27.5066H133.22V14.481Z" fill="#878787"/>
<path d="M138.185 40.5225H121.882C121.508 40.5158 121.152 40.3645 120.888 40.1005C120.624 39.8366 120.474 39.4806 120.468 39.1077V33.3047H135.205V31.0993H120.32V28.6351H138.039V35.6282H123.302V38.0535H138.187L138.185 40.5225Z" fill="#878787"/>
<path d="M131.321 19.0131H126.699V21.5613H131.321V19.0131Z" fill="#878787"/>
<path d="M122.052 24.3034C120.094 24.3034 118.535 22.6623 118.535 20.6234C118.535 18.5845 120.094 16.9434 122.052 16.9434C124.01 16.9434 125.568 18.5845 125.568 20.6234C125.568 22.6623 124.005 24.3034 122.052 24.3034ZM122.052 14.4792C118.506 14.4792 115.641 17.2538 115.641 20.6234C115.641 23.993 118.506 26.7676 122.052 26.7676C125.599 26.7676 128.461 23.993 128.461 20.6234C128.461 17.2538 125.596 14.4792 122.052 14.4792Z" fill="#878787"/>
<path d="M161.953 14.4792H159.115V40.5224H161.953V14.4792Z" fill="#878787"/>
<path d="M142.955 34.5804C142.581 34.5745 142.224 34.4234 141.959 34.1589C141.694 33.8945 141.543 33.5376 141.538 33.164V23.3915H151.176V17.5917H141.391V15.0403H154.013V25.7699H144.374V32.0241H156.279V34.5804H142.955Z" fill="#878787"/>
<path d="M186.14 14.481H183.389V40.5242H186.14V14.481Z" fill="#878787"/>
<path d="M181.32 14.481H178.568V40.5242H181.32V14.481Z" fill="#878787"/>
<path d="M173.664 21.697H167.143V24.1886H173.664V21.697Z" fill="#878787"/>
<path d="M165.166 14.9045H168.002V31.4647H172.823V14.9045H175.657V32.5981C175.651 32.9718 175.499 33.3283 175.234 33.5921C174.969 33.856 174.611 34.0063 174.237 34.0113H166.583C166.209 34.0059 165.852 33.8553 165.588 33.5915C165.323 33.3277 165.172 32.9714 165.166 32.5981V14.9045Z" fill="#878787"/>
<path d="M179.419 22.8322H174.797V25.3787H179.419V22.8322Z" fill="#878787"/>
<path d="M211.38 14.481H208.543V40.5242H211.38V14.481Z" fill="#878787"/>
<path d="M196.948 29.9642C194.367 29.9642 192.239 27.1314 192.239 23.4546C192.239 19.7778 194.367 16.9434 196.948 16.9434C199.53 16.9434 201.654 19.7746 201.654 23.4546C201.654 27.1346 199.528 29.9642 196.948 29.9642ZM196.948 14.4792C192.749 14.4792 189.348 18.5295 189.348 23.4546C189.348 28.3796 192.749 32.4283 196.948 32.4283C201.147 32.4283 204.547 28.378 204.547 23.4546C204.547 18.5312 201.146 14.4792 196.948 14.4792Z" fill="#878787"/>
<path d="M235.001 14.481H232.168V40.5242H235.001V14.481Z" fill="#878787"/>
<path d="M233.016 23.3124H227.633V25.8622H233.016V23.3124Z" fill="#878787"/>
<path d="M229.332 32.0305V34.5804H216.005C215.631 34.5733 215.274 34.4221 215.01 34.1583C214.745 33.8945 214.593 33.5387 214.586 33.1656V15.0468H227.056V17.5933H217.415V32.0305H229.332Z" fill="#878787"/>
<path d="M226.493 23.4012H216.572V25.7748H226.493V23.4012Z" fill="#878787"/>
<path d="M75.2822 41.2C66.8899 41.2 62.25 35.6896 62.25 27.5421C62.25 19.3494 67.2705 13.7986 75.4393 13.7986C78.6946 13.7986 81.4154 14.5634 83.524 15.7518L82.643 21.4513C80.6493 20.1917 78.3124 19.199 75.5883 19.199C71.0278 19.199 68.809 22.5621 68.809 27.4985C68.809 32.472 71.1071 35.9564 75.6661 35.9564C77.1236 35.9564 78.1569 35.6864 79.229 35.1124V30.4072H74.6344L73.8652 25.5469H84.9459V38.4044C82.1927 40.2056 78.9278 41.1967 75.2855 41.1967" fill="#0069B4"/>
<path d="M97.5144 41.0092C94.3285 41.0304 91.1769 40.3514 88.2832 39.0204L89.2403 33.4341C91.9611 34.8893 94.9912 35.8837 97.6359 35.8837C99.5129 35.8837 100.818 35.0752 100.818 33.5117C100.818 32.0177 100.049 31.3273 96.3306 29.9125C91.0429 27.8833 88.7415 26.163 88.7415 21.799C88.7415 16.7106 92.7272 13.9943 97.7865 13.9943C101.244 13.9943 103.465 14.641 105.763 15.7551L104.757 21.2638C102.388 19.8846 99.8984 19.1246 97.8562 19.1246C95.8642 19.1246 94.9054 19.9622 94.9054 21.1894C94.9054 22.5282 95.6342 23.1782 98.9283 24.4426C104.687 26.5445 106.982 28.5349 106.982 32.7437C106.982 38.4852 102.771 41.0092 97.5144 41.0092Z" fill="#0069B4"/>
<defs>
<linearGradient id="paint0_linear_139_898" x1="6.70862" y1="16.093" x2="-1.31919" y2="24.1338" gradientUnits="userSpaceOnUse">
<stop stop-color="#FAB71A"/>
<stop offset="1" stop-color="#C3BF2F"/>
</linearGradient>
<linearGradient id="paint1_linear_139_898" x1="-0.658015" y1="27.8313" x2="6.22007" y2="34.7206" gradientUnits="userSpaceOnUse">
<stop stop-color="#C3BF2F"/>
<stop offset="1" stop-color="#83BD46"/>
</linearGradient>
<linearGradient id="paint2_linear_139_898" x1="47.6964" y1="23.5219" x2="53.5595" y2="29.3946" gradientUnits="userSpaceOnUse">
<stop stop-color="#72CBF2"/>
<stop offset="1" stop-color="#1AB6C3"/>
</linearGradient>
<linearGradient id="paint3_linear_139_898" x1="53.8903" y1="33.5018" x2="47.9796" y2="39.4221" gradientUnits="userSpaceOnUse">
<stop stop-color="#1AB6C3"/>
<stop offset="1" stop-color="#03A99D"/>
</linearGradient>
<linearGradient id="paint4_linear_139_898" x1="9.85271" y1="27.0107" x2="45.8685" y2="27.0107" gradientUnits="userSpaceOnUse">
<stop stop-color="#0972B9"/>
<stop offset="1" stop-color="#72CBF2"/>
</linearGradient>
<linearGradient id="paint5_linear_139_898" x1="3.87001" y1="9.59145" x2="53.0509" y2="9.59145" gradientUnits="userSpaceOnUse">
<stop stop-color="#FAB71A"/>
<stop offset="0.58" stop-color="#F18521"/>
<stop offset="1" stop-color="#EC6625"/>
</linearGradient>
<linearGradient id="paint6_linear_139_898" x1="5.18486" y1="45.982" x2="46.4595" y2="45.982" gradientUnits="userSpaceOnUse">
<stop stop-color="#83BD46"/>
<stop offset="1" stop-color="#03A99D"/>
</linearGradient>
</defs>
</svg>
